<?xml version="1.0" encoding="UTF-8"?>
<svg version="1.1" xmlns="http://www.w3.org/2000/svg" width="64" height="64">
<path d="M0 0 C4.7019546 3.35384174 8.97599893 7.57785006 10.67578125 13.1953125 C11.45008363 20.65677176 12.13170945 28.98226446 8.01171875 35.5859375 C3.37140496 41.17602312 -1.4265081 44.81994507 -8.8125 45.53125 C-17.4077007 45.61904572 -23.82432749 45.48903344 -30.28515625 39.32421875 C-35.65909503 33.52255831 -37.60851394 29.14931231 -37.57421875 21.1328125 C-37.579375 19.92496094 -37.58453125 18.71710937 -37.58984375 17.47265625 C-37.34151622 14.40873275 -37.03515461 12.70749649 -35.32421875 10.1953125 C-34.66421875 9.8653125 -34.00421875 9.5353125 -33.32421875 9.1953125 C-32.67208583 7.17067995 -32.67208583 7.17067995 -32.32421875 5.1953125 C-31.66421875 5.1953125 -31.00421875 5.1953125 -30.32421875 5.1953125 C-30.32421875 4.5353125 -30.32421875 3.8753125 -30.32421875 3.1953125 C-28.71484375 1.94140625 -28.71484375 1.94140625 -26.57421875 0.6328125 C-25.878125 0.19839844 -25.18203125 -0.23601563 -24.46484375 -0.68359375 C-17.09580179 -4.54292777 -7.10070179 -4.20455634 0 0 Z M-10.32421875 5.1953125 C-9.32421875 7.1953125 -9.32421875 7.1953125 -9.32421875 7.1953125 Z M-30.32421875 10.1953125 C-30.32421875 10.5253125 -30.32421875 10.8553125 -30.32421875 11.1953125 C-28.67421875 11.1953125 -27.02421875 11.1953125 -25.32421875 11.1953125 C-25.32421875 10.8653125 -25.32421875 10.5353125 -25.32421875 10.1953125 C-26.97421875 10.1953125 -28.62421875 10.1953125 -30.32421875 10.1953125 Z M-8.32421875 10.1953125 C-7.32421875 12.1953125 -7.32421875 12.1953125 -7.32421875 12.1953125 Z M-23.32421875 11.1953125 C-19.32421875 12.1953125 -19.32421875 12.1953125 -19.32421875 12.1953125 Z M-18.32421875 12.1953125 C-18.32421875 13.1853125 -18.32421875 14.1753125 -18.32421875 15.1953125 C-18.98421875 15.1953125 -19.64421875 15.1953125 -20.32421875 15.1953125 C-20.32421875 16.1853125 -20.32421875 17.1753125 -20.32421875 18.1953125 C-21.31421875 18.5253125 -22.30421875 18.8553125 -23.32421875 19.1953125 C-22.87339406 20.65598449 -22.41328338 22.11379282 -21.94921875 23.5703125 C-21.69398437 24.38242187 -21.43875 25.19453125 -21.17578125 26.03125 C-20.42567592 28.35990435 -20.42567592 28.35990435 -18.32421875 30.1953125 C-15.89169214 30.65693677 -15.89169214 30.65693677 -13.19921875 30.8203125 C-12.28914063 30.89507812 -11.3790625 30.96984375 -10.44140625 31.046875 C-9.74273437 31.09585938 -9.0440625 31.14484375 -8.32421875 31.1953125 C-5.41250086 27.52551046 -5.41250086 27.52551046 -4.32421875 23.1953125 C-3.66421875 23.1953125 -3.00421875 23.1953125 -2.32421875 23.1953125 C-2.32421875 22.5353125 -2.32421875 21.8753125 -2.32421875 21.1953125 C-2.98421875 21.1953125 -3.64421875 21.1953125 -4.32421875 21.1953125 C-4.44796875 20.2671875 -4.57171875 19.3390625 -4.69921875 18.3828125 C-5.13954957 15.05606015 -5.13954957 15.05606015 -7.32421875 12.1953125 C-9.9907578 11.83070797 -9.9907578 11.83070797 -12.94921875 12.0078125 C-13.95210937 12.03488281 -14.955 12.06195313 -15.98828125 12.08984375 C-17.14457031 12.14205078 -17.14457031 12.14205078 -18.32421875 12.1953125 Z M-5.32421875 31.1953125 C-5.32421875 31.5253125 -5.32421875 31.8553125 -5.32421875 32.1953125 C-3.01421875 32.1953125 -0.70421875 32.1953125 1.67578125 32.1953125 C1.67578125 31.8653125 1.67578125 31.5353125 1.67578125 31.1953125 C-0.63421875 31.1953125 -2.94421875 31.1953125 -5.32421875 31.1953125 Z M2.67578125 32.1953125 C6.67578125 33.1953125 6.67578125 33.1953125 6.67578125 33.1953125 Z M-15.32421875 38.1953125 C-14.32421875 40.1953125 -14.32421875 40.1953125 -14.32421875 40.1953125 Z M-14.32421875 40.1953125 C-13.32421875 42.1953125 -13.32421875 42.1953125 -13.32421875 42.1953125 Z " fill="#F6F5F5" transform="translate(45.32421875,10.8046875)"/>
<path d="M0 0 C2.97 0.33 5.94 0.66 9 1 C9 1.33 9 1.66 9 2 C6.69 2 4.38 2 2 2 C1.67 3.32 1.34 4.64 1 6 C0 3 0 3 0 0 Z " fill="#DDD8D8" transform="translate(27,40)"/>
</svg>
